<?xml version="1.0" encoding="utf-8"?>
<!-- Generator: Adobe Illustrator 22.1.0, SVG Export Plug-In . SVG Version: 6.00 Build 0)  -->
<svg version="1.1" id="Layer_1" xmlns="http://www.w3.org/2000/svg" xmlns:xlink="http://www.w3.org/1999/xlink" x="0px" y="0px"
	 viewBox="0 0 19.5 20" style="enable-background:new 0 0 19.5 20;" xml:space="preserve">
<style type="text/css">
	.st0{fill:#100F0D;}
</style>
<g id="layer1_2_" transform="translate(-534.79745,-317.08566)">
	<path id="path40_1_" class="st0" d="M549.8,327.4v-4.5l3.9-2.2v4.5L549.8,327.4L549.8,327.4z M544.7,319.8L544.7,319.8l-0.1,0.2
		v1.3l-2,1.1l4.1,2.3l-3.5,2l-7.6-4.4l7.6-4.4l2.2,1.2L544.7,319.8L544.7,319.8z M549.5,322.3l-3.9-2.2l3.9-2.2l3.9,2.2L549.5,322.3
		L549.5,322.3z M545.2,323.3v-2.7l3.9,2.2v4.5l-1.5-0.8v-1.7v-0.1l-0.1,0L545.2,323.3z M547.1,329.9v0.4l0.4-0.2l3.7-2.3v4l-7.6,4.4
		v-8.7l3.5-2V329.9L547.1,329.9z M549.4,328.2l-1.6,1v-2L549.4,328.2L549.4,328.2z M544.6,322.1v0.9l-0.7-0.4L544.6,322.1z
		 M535.3,323l7.6,4.4v8.7l-7.6-4.4V323L535.3,323z M549.6,317.1L549.6,317.1h-0.2l-3.3,1.9l-2.7-1.5l-0.1,0l-0.1,0l-8.4,4.8v0.1v9.6
		v0.1l0.1,0.1l8.3,4.8l0,0l0,0l8.3-4.8l0.1,0V332v-4.9l-0.1-0.1l2.6-1.5l0.1-0.1v-5.5l0,0L549.6,317.1"/>
</g>
</svg>
